<svg xmlns="http://www.w3.org/2000/svg" viewBox="0 0 6081.02 9586.39">
<g id="Saba_Yoi" data-name="Saba Yoi"><path id="Saba_Yoi-2" data-name="Saba Yoi" d="M4842,8936.92a334,334,0,0,0,72,207c-25.36,10.5-39.57,33.61-36,54,2.58,14.7,13.68,23.82,18,27a274.9,274.9,0,0,1,9,90,126.52,126.52,0,0,0,9,143.68,140.83,140.83,0,0,1,63,90.27,164.7,164.7,0,0,0,27,81,162.91,162.91,0,0,0,45,45v38.77c-28.73-3.06-52.71,18.43-54,42.21-1.36,25.33,23.19,50.4,54,47.38a205.06,205.06,0,0,0,72-11.39c13.9.66,28.95.77,45,0a473.22,473.22,0,0,0,72-9c.71-.22,14.85-4.88,18-18,2.83-11.79-4.46-25.32-18-30.54a49.51,49.51,0,0,1,45-32.45,53,53,0,0,0,18,27,51.22,51.22,0,0,0,18,9,60.88,60.88,0,0,0,18,9,63.16,63.16,0,0,0,36,0,25.15,25.15,0,0,0,9-18c.44-11.82-8-19-9-19.82a142.28,142.28,0,0,0,54-43.17,34.27,34.27,0,0,1,45-18,71.15,71.15,0,0,1,27-36,83.66,83.66,0,0,0-18-36,84.92,84.92,0,0,0-45-27c-2.94-12.26-10.3-50.06,9-90a131.18,131.18,0,0,1,36-45,616.65,616.65,0,0,1,5.84-476.89,122.77,122.77,0,0,1,128.65,0,49.41,49.41,0,0,0,9.48-18,50.19,50.19,0,0,0,0-27h54.85a252.42,252.42,0,0,0,26.13-108h63c-5.41-62.86,30.53-106.8,63-108,28.73-1,51,31.56,54,36h58.1c10.19-7.9,20.91-16.87,31.87-27,10-9.2,18.95-18.28,27-27,14.6-10.3,30.67-8,36,0,4.46,6.69.68,16.32,0,18v24.41a346.77,346.77,0,0,0,144-69.39c-52.58-26.94-76.36-78.76-63-117,9.5-27.14,35.35-40.58,45-45,7.59-62.86,42.67-112.69,90-126,10.8-3,29.42-6.17,54,0a155.55,155.55,0,0,1,81-72c-7.76-65-8.13-164.94,45-260.94a371,371,0,0,1,22.49-35.7,41.43,41.43,0,0,0-4.5-18.29,42.19,42.19,0,0,0-18-18,129.72,129.72,0,0,0,72-99c-1.73-9.71-5.93-24.67-18-36-20.47-19.21-45-10.5-72-27-21-12.86-29.07-32.15-36-45-16.29-30.26-51.45-71.3-135-117a52.06,52.06,0,0,0,0-27,51.48,51.48,0,0,0-9-18,171.46,171.46,0,0,1-45-18c-11.13-11.8-23.11-23.84-36-36-21.53-20.31-42.72-38.22-63-54l-99-9-99-9c-10.7-3.37-39-10.66-72,0a117.3,117.3,0,0,0-45,27,548,548,0,0,1-90-81c-3.71,1.57-20.28,9.08-27,27-7.18,19.16-.14,42.41,18,57.34l-45-3.35a183.81,183.81,0,0,1,9,36c5.58,38.49-2.31,70.61-9,90a256.44,256.44,0,0,1-108,81,351.28,351.28,0,0,0-99-9,41.51,41.51,0,0,0-9,36,76.48,76.48,0,0,1-72,0c6.09,5.35,21.48,20.32,27,45a83.52,83.52,0,0,1,0,36l-108,108a863,863,0,0,1-9-90c-1.37-29.07-1.16-56.17,0-81-.67-.9-7-9-18-9-1.12,0-11.38.18-18,9a144,144,0,0,1-36,90,29,29,0,0,1-18,0c-12.76-4.3-17.38-16.31-18-18a414.64,414.64,0,0,1-9-117c-.86-3.56-6.28-24.48-27-36-25.87-14.38-52.06-1-54,0a71.13,71.13,0,0,1-36,27,41.24,41.24,0,0,0-18-9c-18.71-4-33.56,7.12-36,9a100.56,100.56,0,0,1-63-9,155.63,155.63,0,0,1-81,72,101.84,101.84,0,0,1-27,63,60,60,0,0,1-36,9,59.12,59.12,0,0,1-27-9,59.27,59.27,0,0,0-9,27,60.07,60.07,0,0,0,9,36.08,373.62,373.62,0,0,0-117-63.08,138.59,138.59,0,0,0-45,63c-14.67,42.28-3.88,78.61,0,90a146.89,146.89,0,0,0,45,36,51.3,51.3,0,0,1-18,54c2.49-.72,47.62-12.79,81,18,26.2,24.17,33.8,64.31,18,99h-63a207.69,207.69,0,0,1-9,81,51.48,51.48,0,0,1-18,9,52.17,52.17,0,0,1-27,0,283.3,283.3,0,0,0-108,72c7.67,2.76,24.12,10,36,27a70.2,70.2,0,0,1,9,18,40.94,40.94,0,0,1-18,18c-17.05,8.46-33.69,1.07-36,0a337.22,337.22,0,0,1-36,180,291.5,291.5,0,0,0-9,95.44,219.37,219.37,0,0,0,90,183.5c10.71,3.36,39,10.65,72,0a117.34,117.34,0,0,0,45-27,329,329,0,0,0,215.95,126Z" transform="translate(-426.08 -217.47)" fill="#47bcec" stroke="#3954a5" stroke-miterlimit="10"/></g>
<g id="Thepha"><path id="Thepha-2" data-name="Thepha" d="M4833,6966.39a51.66,51.66,0,0,1,0,27,52.29,52.29,0,0,1-18,27c-9.49,0-33.3,1.26-54,18-26.91,21.77-37.5,60.72-27,99a260.23,260.23,0,0,0,188.95,180c2.88,9.56,5.09,22.86,0,36-9.4,24.26-35.1,25.68-45,45-6.42,12.55-6.73,33.78,18,72a178.25,178.25,0,0,0-45,81c-15.48-1.95-27,9-27,18s11.51,19.94,27,18a73.91,73.91,0,0,1-9,45,73.06,73.06,0,0,1-27,27c-29.51-2.11-35.05,7.21-36,9-6.46,12.31,11,37.7,45,63a155.63,155.63,0,0,0,81-72c8.37,4.23,28.63,12.94,54,9a85.83,85.83,0,0,0,27-9,38.08,38.08,0,0,1,18,0c9.53,2.45,12.55,7.62,18,9,6.63,1.68,17.51-2.08,36-27,1.93-1,28.12-14.38,54,0,19.89,11.06,25.66,31.3,27,36,3.82,13.43,1.32,22.25,0,36-3.48,36.31,2.94,89.47,27,99,3.12,1.23,8.89,2.66,18,0a159,159,0,0,0,18-27,161.79,161.79,0,0,0,18-63c.68-.9,7-9,18-9,1.12,0,11.38.18,18,9a605.18,605.18,0,0,0,9,171l45-45,63-63c0-.07,4.74-26.42,0-45-2.52-9.87-9.08-22.85-27-36a76.48,76.48,0,0,0,72,0,41.51,41.51,0,0,1,9-36,302.22,302.22,0,0,1,99,9,240.19,240.19,0,0,0,111-90.37,226.19,226.19,0,0,0-3-116.58l43.2,3.22c-1.24-1.15-21.56-20.54-16.21-48.21,4.58-23.73,24.38-34.61,27-36a548,548,0,0,0,90,81,152.4,152.4,0,0,1,117-27l198,18,98.35,89.32c6.64,2.64,33.54,12.41,63.61.66a85.51,85.51,0,0,0,36-27,653.84,653.84,0,0,0-9-162,101.9,101.9,0,0,0-63-27,167.93,167.93,0,0,1-81-9,132,132,0,0,1-126-36v-18a173.82,173.82,0,0,0,90-63c-.9-.67-9-7-9-18,0-1.13.18-11.39,9-18a149.51,149.51,0,0,1-9-72l9-9a14.42,14.42,0,0,1,0-9c2.15-6.38,8.15-8.69,9-9-8.41.82-15.7-3-18-9a13.49,13.49,0,0,1,0-9,94.56,94.56,0,0,1,0-81,304.37,304.37,0,0,1,99-126,19,19,0,0,1,18-9c8.79,1,13.33,8.1,13.88,9,4.82-5,6.44-12.05,4.12-18a16.92,16.92,0,0,0-9-9h-32.45a158.12,158.12,0,0,1-3.54-153q13.48-18,27-36h-49.87a49.94,49.94,0,0,1,13.88-63h72a70.81,70.81,0,0,0,54-45,975.58,975.58,0,0,0-117,9c-18.77,2.59-36.77,5.63-54,9a723,723,0,0,1-359.92-81,2089.14,2089.14,0,0,1-728.82-548.87,34.25,34.25,0,0,1-45-18,62,62,0,0,1-9,27c-11.83,19-30.51,25.35-36,27a58.38,58.38,0,0,1-9,27c-14.7,22.73-40.68,26.45-45,27-4.25,26.37-11.6,34.18-18,36-2.86.8-4.95.24-18,0-7.56-.14-13.78-.08-18,0a51.3,51.3,0,0,0,9-45,74.73,74.73,0,0,0-36-18,73.51,73.51,0,0,0-27,0,41.48,41.48,0,0,0-9,36,52.29,52.29,0,0,1,18,27,51.66,51.66,0,0,1,0,27,41.46,41.46,0,0,0,36-9,162.36,162.36,0,0,0,0,108q-4.48,9-9,18a59.05,59.05,0,0,1-18,63,14.49,14.49,0,0,1,9,0c6.38,2.15,8.69,8.15,9,9-.62,1.68-5.25,13.69-18,18a28.88,28.88,0,0,1-18,0,41.46,41.46,0,0,1-9,36,41.51,41.51,0,0,0-36-9,171.19,171.19,0,0,0-18,45,174.48,174.48,0,0,0,0,81,368.82,368.82,0,0,0,0,162,328.18,328.18,0,0,0,117,90,72.57,72.57,0,0,0,0,18,73.43,73.43,0,0,0,9,27,71.24,71.24,0,0,0,36,27,126.23,126.23,0,0,1-9,45,124,124,0,0,1-9,18,58.68,58.68,0,0,0-27,45v63a51.41,51.41,0,0,0-27,18c-.84.31-6.85,2.63-9,9a14.49,14.49,0,0,0,0,9,20.55,20.55,0,0,0,9,9C4823.52,6970.61,4831.83,6966.92,4833,6966.39Z" transform="translate(-426.08 -217.47)" fill="#47bcec" stroke="#3954a5" stroke-miterlimit="10"/></g>
<g id="Chana"><path id="Chana-2" data-name="Chana" d="M4928.23,5990.43c-90.78-25.36-220.83-74.3-347.19-175.77-83.27-66.87-129.86-128.41-260.93-305.93-124.23-168.25-225.94-307.41-296.93-404.9a105.71,105.71,0,0,0-54,18,104,104,0,0,0-27,27,296.61,296.61,0,0,1,63,180c7,3.62,19.8,11.71,27,27a52,52,0,0,1,3.35,9.3,40.18,40.18,0,0,1-12.34,17.69,41.17,41.17,0,0,1-27,9,384,384,0,0,0-126-9,55.61,55.61,0,0,0-27,27c-9.86,21.73-1.41,41.79,0,45a143.7,143.7,0,0,0-27,63,141.87,141.87,0,0,0,0,45,258.23,258.23,0,0,0-63,9,253,253,0,0,0-27,9c-18,8.05-28.87,26.37-27,45,1.58,15.71,12,29.49,27,36a53.06,53.06,0,0,1,27,18,51.45,51.45,0,0,1,9,18,117,117,0,0,0,0,90,102,102,0,0,1-63,27v40.11a270.57,270.57,0,0,0,72,49.87c-71,40.38-105.34,105.37-90,153,3.07,9.53,11.23,27.92,36,45a420.92,420.92,0,0,0-90,63c-33.05,30.33-61.15,56.12-72,99-7.43,29.37-3.88,55.4,0,72a98.1,98.1,0,0,0-85.48,55,258,258,0,0,1,58.48,79.93c1.66,2.17,15.55,21,9,45-7.47,27.32-34.5,35.57-36,36v126a69.43,69.43,0,0,0-9,45c4,27.12,23.09,42.06,27,45a102.64,102.64,0,0,0-18,90,41.46,41.46,0,0,0-36,9,71.14,71.14,0,0,0,27,81,239.42,239.42,0,0,0,131.24-54c34.32,1.63,63.12,1.05,84.71,0,29.34-1.43,41.26-3.53,54-9,22.33-9.62,36.76-25.2,45-36a85.54,85.54,0,0,0,87.39,45,487.73,487.73,0,0,1,137.55,9,100.95,100.95,0,0,0,81,72,122.12,122.12,0,0,1,36-18c31.9-9.75,59.51-3.64,72,0a193.47,193.47,0,0,0,99,72,94.74,94.74,0,0,0,81.07,0,52.08,52.08,0,0,1,17.16,57.15A496.67,496.67,0,0,1,4617,7209.33a51.49,51.49,0,0,0,9-18,52.05,52.05,0,0,0,0-27,52.06,52.06,0,0,1,27,0,51.48,51.48,0,0,1,18,9,51.3,51.3,0,0,0,18,54,251.1,251.1,0,0,0,48.35-79.4c-15.14-35.39-9.35-75,14.63-100.56,23.68-25.24,55.72-26.82,63-27a52.29,52.29,0,0,0,18-27,51.66,51.66,0,0,0,0-27c-13.07,1.29-24.45-2.32-27-9-4-10.64,15.73-25.31,18-27a58.37,58.37,0,0,1,18-9l.54-67.49a58.58,58.58,0,0,1,26.46-40.49c8.21-12.78,17-31.23,18-54,.14-3.1.13-6.1,0-9a63.65,63.65,0,0,1-45-72,280.67,280.67,0,0,1-117-90,364.3,364.3,0,0,1-.27-160.74,177.69,177.69,0,0,1,.27-82.21,174,174,0,0,1,18-45,41.51,41.51,0,0,1,35.42,8.51,38.34,38.34,0,0,0,9.57-35.51,28.88,28.88,0,0,0,18,0c12.75-4.3,17.38-16.31,18-18-.31-.85-2.62-6.85-9-9a14.49,14.49,0,0,0-9,0,59.05,59.05,0,0,0,18-63l8.13-18a174.56,174.56,0,0,1,.86-108,36.79,36.79,0,0,1-35.73,8,51.71,51.71,0,0,0-.26-26,52.35,52.35,0,0,0-18-27,41.48,41.48,0,0,1,7.89-34.64,67.84,67.84,0,0,1,28.1-1.35,28.68,28.68,0,0,1,36,36,70,70,0,0,1-9,27h36a44.3,44.3,0,0,0,9-9,47.16,47.16,0,0,0,9-27,25.66,25.66,0,0,0,32.26-13.19Z" transform="translate(-426.08 -217.47)" fill="#47bcec" stroke="#3954a5" stroke-miterlimit="10"/></g>
<g id="Na_Thawi" data-name="Na Thawi"><path id="Na_Thawi-2" data-name="Na Thawi" d="M3492.3,6948.39a117.33,117.33,0,0,1-90,54c.7,4.58,5,36.32-18,63-24.29,28.18-58.77,27.19-63,27-2.35,2.94-34.87,45-18,90,6.88,18.35,19.26,30,27,36-33.39,16.17-47.53,53.1-36,81,8.38,20.25,29.63,34.11,54,36a91.3,91.3,0,0,1-27,90,142.32,142.32,0,0,0,54,72v81c3.76,1.48,26.28,10.79,36,36,8.28,21.48,1.76,40.33,0,45a140,140,0,0,0-11.13,116.5,96.34,96.34,0,0,1,20.13,36.47,97.55,97.55,0,0,1,0,54,85.93,85.93,0,0,0-9,27c-3.94,25.36,4.78,45.61,9,54a71.12,71.12,0,0,0-27,81h22.31q-2.16,9-4.31,18c-5.34-.19-18.52.13-27,9-12.44,13-11.15,40.74,9,63a114.67,114.67,0,0,1,27,54c14.72,38.93,47.58,63.93,81,63,21.44-.6,37.41-11.74,45-18v74.38c.55,4.52,3.2,21.67,18,33.6a48,48,0,0,0,18,9,162.13,162.13,0,0,1,9,63h27a51.45,51.45,0,0,0-9,18,52.13,52.13,0,0,0,0,27c27.16,20.25,41.83,48.14,36,72a46.77,46.77,0,0,1-9,18c-7.73,3.82-11.2,11.87-9,18,2,5.62,8.09,7.66,9,7.95,2.36,1.08,13.5,6.44,18,19.05,4.32,12.12.79,26.16-9,36-12.84,8.71-19.93,22.64-18,36a33.71,33.71,0,0,0,9,18c2.75,2.92,22.14,24.18,18,54a64.8,64.8,0,0,1-18,36,211.43,211.43,0,0,1,63,81,774.94,774.94,0,0,0,171-9c2.07,2.81,12,16.95,9,36-3.78,24.13-24.93,35-27,36a71.19,71.19,0,0,1,36,27,751.13,751.13,0,0,0,269.93-162,86.63,86.63,0,0,1,54-9,408.16,408.16,0,0,1,99-126,41.48,41.48,0,0,0,36-9,115.28,115.28,0,0,0,0-89.31,254.35,254.35,0,0,1,90.72,5.53A336.37,336.37,0,0,0,4464.07,8433a331.17,331.17,0,0,0,0-54c2.3,1.07,18.94,8.46,36,0a40.94,40.94,0,0,0,18-18,82.78,82.78,0,0,0-45-45,283.3,283.3,0,0,1,108-72,75.26,75.26,0,0,0,43.24-7.7,149.78,149.78,0,0,0,10.75-82.28h62.12a82.84,82.84,0,0,0-8.13-90c-21.18-26.64-57.13-37.47-90-27a52.58,52.58,0,0,0,18-27,51.72,51.72,0,0,0,.45-25.16,172.1,172.1,0,0,1-45.73-38.67c-3.73-13.57-14.6-59.83,9.28-107.13a142.19,142.19,0,0,1,36-45,373.62,373.62,0,0,1,117,63.08,60.07,60.07,0,0,1-9-36.08,59.27,59.27,0,0,1,9-27c7.41,4.65,20.6,11.08,36,9,26.86-3.63,50.28-31.81,53.83-69.93-34.41-26.16-51.66-52.45-44.83-65,1-1.83,6.72-11.18,36-9a73.06,73.06,0,0,0,27-27,73.91,73.91,0,0,0,9-45,21.21,21.21,0,0,1-9,0c-12.5-2.79-17.5-16.58-18-18,.49-1.42,5.49-15.2,18-18a21.21,21.21,0,0,1,9,0,178.22,178.22,0,0,1,44.78-80.76,95.2,95.2,0,0,1-17.79-36.21c-2.88-11.83-5.76-23.65,0-36,6.22-13.32,18.71-19.18,23.32-21.07A48.28,48.28,0,0,0,4923,7353.3c7.12-17.38,1.29-32.81,0-36-24.16-6-78.36-22.93-126-72a262.36,262.36,0,0,1-59.62-97.39,209.1,209.1,0,0,1-49.65,78.33,51.24,51.24,0,0,1-16.7-52.92,51.48,51.48,0,0,0-18-9,52.06,52.06,0,0,0-27,0,52.23,52.23,0,0,1,0,27,51.68,51.68,0,0,1-7.52,16,545.68,545.68,0,0,0-200.17-120.82,52.08,52.08,0,0,0-17.16-57.15,91.27,91.27,0,0,1-36.09,9c-19.48.64-34.25-5.56-63-18-16.91-7.32-25.36-11-36-18a161.63,161.63,0,0,1-45-45c-12.47-3.64-40.08-9.75-72,0a122.12,122.12,0,0,0-36,18,101.14,101.14,0,0,1-27-9c-35.1-17.6-49.5-51-54-63a542.15,542.15,0,0,0-153-9,83.18,83.18,0,0,1-36-9,84.48,84.48,0,0,1-36-36,101.89,101.89,0,0,1-27,27c-25.53,17.27-51.91,17.83-62.41,17.46l-94.28.54a239.42,239.42,0,0,1-131.24,54Z" transform="translate(-426.08 -217.47)" fill="#47bcec" stroke="#3954a5" stroke-miterlimit="10"/></g>
<g id="Sadao"><path id="Sadao-2" data-name="Sadao" d="M1287.82,6633.47a173.25,173.25,0,0,0-36,45c-29.49,53.21-21.73,106.84-18,126h-45a160.83,160.83,0,0,1,27,36,162.52,162.52,0,0,1,19.19,61.93,40.68,40.68,0,0,1-28.19,10,40.27,40.27,0,0,1-24.6-10c.82,4,5.3,23.91,24.6,37,20.11,13.69,41.22,9.77,45,9a60.34,60.34,0,0,0,9,36,58.93,58.93,0,0,0,18,18c39.61,14.48,65,51.52,63,90-2.34,45.39-41.56,69.92-45,72l9,94.86a32.25,32.25,0,0,1-9,22.11,31.74,31.74,0,0,1-18,9,183.86,183.86,0,0,1,90,81,34.26,34.26,0,0,1-18,45c3.55,4.54,49.48,61.33,117,54,30.46-3.32,52.25-18.28,63-27a177.27,177.27,0,0,0,27-72c1-2.35,6.84-15.76,18-18,13.31-2.66,31.69,11.09,36,36a45,45,0,0,0,0,54,163,163,0,0,1,99-54,186.38,186.38,0,0,0,90-9c-7.54,28.26-16.21,78.25,0,135a238.25,238.25,0,0,0,18,45c7.25-7.87,17.6-11.42,27-9a25.85,25.85,0,0,1,13.5,9l13.49,54a415.19,415.19,0,0,0,117,9c1.06,1.24,14.44,17.28,9,36-5,17.24-23.86,29.39-45,27,3,3.28,21.07,23.95,18,54-3.61,35.23-33.18,52.41-36,54,8.7,3.76,48.08,21.72,54,54,7.25,39.65-37.11,95-117,108-.89.68-9,7-9,18,0,1.12.17,11.38,9,18a131.83,131.83,0,0,0,36,9,130.16,130.16,0,0,0,27,0c3,10.8,21.78,74.74,81,99a123.23,123.23,0,0,0,45,9c.47-.26,9.33-5,18,0a18.44,18.44,0,0,1,9,18,40.56,40.56,0,0,0,0,51,57.24,57.24,0,0,1,18-6c16.89-2.62,30.37,3.23,35.89,6a157.23,157.23,0,0,1,36.09,48c24.93,51.52,13.34,101.3,9,117,1.4,9.84,9.07,17.25,18,18a20.09,20.09,0,0,0,18-9,91.3,91.3,0,0,1,90-27c10.83,11.69,22.8,23.77,36,36a670.4,670.4,0,0,0,54,45,26.51,26.51,0,0,1,18-9c12.4-.75,20.24,7.94,21.16,9a171.29,171.29,0,0,0,59.82,81h72a123.56,123.56,0,0,1,81-54,76.46,76.46,0,0,0,72,0,171.06,171.06,0,0,0,18-45,31.82,31.82,0,0,1,27,27,72.54,72.54,0,0,0,9,45h81a193.46,193.46,0,0,1,117,0,59,59,0,0,1-18,63,395.83,395.83,0,0,0,126,117,199.87,199.87,0,0,0,99,18,197.14,197.14,0,0,0,68.06-18,28.94,28.94,0,0,1-5.07,36c7.59,9.24,18.75,12.65,27,9a19.17,19.17,0,0,0,9-9,41.46,41.46,0,0,0,9-36,102.64,102.64,0,0,0,90-18,152.93,152.93,0,0,0,85.48,86c1.8,1.88,13.34,13.51,31.49,12.92a42.64,42.64,0,0,0,28.81-12.92,120.59,120.59,0,0,1,61.17,57.91h53.51l-8.52-9c3.17-3.34,18-19.61,18-45,0-4.61-.49-26.61-18-45-1.5-1.64-10.78-12.14-9-27a33.67,33.67,0,0,1,8.61-18.52c2.75-1.81,15.06-10.31,18.38-26.47a40.93,40.93,0,0,0-1.4-21.26,111.31,111.31,0,0,0-16.59-14.73c-4.41-3.17-7.72-5-9-9-1.58-4.88.89-10,2.87-13.14a43.85,43.85,0,0,0,13.21-51.49,127.34,127.34,0,0,0-33.31-42.76,50,50,0,0,1-.77-27.57,48.94,48.94,0,0,1,8.34-17.1l-24.23-.9a122.73,122.73,0,0,0-11.1-63,48,48,0,0,1-27-18,47.45,47.45,0,0,1-9-27v-72c-6.5,5.43-22.56,17.23-45,18-29.86,1-58.76-17.91-74.16-48.19q-11.55-27.37-23.08-54.74c-2.72-1.83-29.33-20.36-28.73-50A52.46,52.46,0,0,1,3382,8058a22.47,22.47,0,0,1,11.31-11.82,22.72,22.72,0,0,1,18,0q2.16-9,4.31-18h-22.31a71.13,71.13,0,0,1,26.78-80.83,97,97,0,0,1-1.46-77.79,96.33,96.33,0,0,0,1.68-57.33,94.5,94.5,0,0,0-19.05-35.23c-6.4-20.18-15.21-59.39,1.05-99.74a126.4,126.4,0,0,1,9-18c1.76-4.65,8.28-23.5,0-45-9.71-25.21-32.23-34.52-36-36v-81a142.21,142.21,0,0,1-53.68-71.09,94.2,94.2,0,0,0,26.68-90.87c-24.33-1.82-45.57-15.69-54-36-11.5-27.75,2.31-64.27,35.07-80.52-7.65-6.34-19.51-18.18-26.07-36.45-16.19-45.06,15.21-86.43,18-90,6.69.26,32.08.45,54-18,31.87-26.83,27.4-68.69,27-72a126.77,126.77,0,0,0-72-63h-72a181,181,0,0,0-54-90,159.12,159.12,0,0,0-99,18,63.62,63.62,0,0,1-54-54,92.75,92.75,0,0,0-54,63h-36c-10-2.89-34.94-11.59-54-36a102.78,102.78,0,0,1-18-36,43.37,43.37,0,0,0,0-18c-3.35-15.64-14.55-24.48-18-27a51.42,51.42,0,0,1-9,18,53,53,0,0,1-27,18,283.42,283.42,0,0,0-72-108,31.32,31.32,0,0,0,9,0,33.42,33.42,0,0,0,18-9,41.49,41.49,0,0,0-9-36,16.64,16.64,0,0,0-21.73-9,203.45,203.45,0,0,0-86.25-9,71,71,0,0,0-27-36l-18,9a46.89,46.89,0,0,1-36,45h-27a102.29,102.29,0,0,1-18-18,103.68,103.68,0,0,1-18-36c-1.45-.71-14.92-7-27,0a25.58,25.58,0,0,0-9,9,159.28,159.28,0,0,0-18,45,161.36,161.36,0,0,0,0,72c-73.79,29.86-112.88,68.81-135,99-23.23,31.75-33.31,61.53-72,108a489.34,489.34,0,0,1-63,63,31.8,31.8,0,0,1-27-27h-36l-9,9h-36a114.81,114.81,0,0,1-54-54,45,45,0,0,1-54,0,309.92,309.92,0,0,0-126-63,147.22,147.22,0,0,1-45,36,84.47,84.47,0,0,0-36-36,82.89,82.89,0,0,0-36-9,231.56,231.56,0,0,1-126-18,273.25,273.25,0,0,1-99-54,76.56,76.56,0,0,0-72,0c-1.68-.61-13.69-5.24-18-18a28.92,28.92,0,0,1,0-18c-5.14-11.49-16-18.62-27-18-9.91.56-16.34,7.19-18,9a235.56,235.56,0,0,1-99-90Z" transform="translate(-426.08 -217.47)" fill="#47bcec" stroke="#3954a5" stroke-miterlimit="10"/></g>
<g id="Khlong_Hoi_Khong" data-name="Khlong Hoi Khong"><path id="Khlong_Hoi_Khong-2" data-name="Khlong Hoi Khong" d="M1287.82,6633.47a71.08,71.08,0,0,0,27-36h58.87a58.71,58.71,0,0,0,22.12-18,57.88,57.88,0,0,0,9-18,200.5,200.5,0,0,0,119,0,504.76,504.76,0,0,1,79-108,661.58,661.58,0,0,0,260.94-72,666.76,666.76,0,0,0,117-180,289.47,289.47,0,0,0,108-99,411.33,411.33,0,0,0,135-9,51.5,51.5,0,0,1,9-18,53.13,53.13,0,0,1,27-18h111.14c2.66.39,18.81,2.43,32.83-9a43,43,0,0,0,15.09-26.89,99.23,99.23,0,0,0,82.26,0,122.35,122.35,0,0,1,19.62,35.89c12.41,36.14,4.12,68.18,0,81,4.88,24.95,26.73,39.63,45,36,12.39-2.47,22.6-13.26,27-27a53,53,0,0,0,27-18,51.22,51.22,0,0,0,9-18,73.43,73.43,0,0,1,27-9,72.57,72.57,0,0,1,18,0,51.23,51.23,0,0,1,27-18,276.17,276.17,0,0,0,9,108,82.72,82.72,0,0,1,45,45,149.51,149.51,0,0,1,9,72,71.24,71.24,0,0,0-27,36,36.29,36.29,0,0,1,18,9,35.91,35.91,0,0,1,9,13.31,462.66,462.66,0,0,0-9,121.66,131.18,131.18,0,0,0,63,9,51.25,51.25,0,0,1-27,18,168.17,168.17,0,0,1,9,81h-27a71.24,71.24,0,0,1-36,27h-18q-22.09,0-44.1-.1a81.85,81.85,0,0,0-27.88-35.89l-16.88,8.44a49.84,49.84,0,0,1-35.24,45H2567a89.31,89.31,0,0,1-19.44-17.49,90.46,90.46,0,0,1-18-36c-1.45-.71-14.92-7-27,0a25.58,25.58,0,0,0-9,9,159.28,159.28,0,0,0-18,45,161.36,161.36,0,0,0,0,72,293.46,293.46,0,0,0-81,45,297.58,297.58,0,0,0-70.4,79.05,485.17,485.17,0,0,1-117,144.6,28.74,28.74,0,0,1-28.54-25.7h-36l-8.14,8.14q-4.77.53-9.86.86a212.9,212.9,0,0,1-27,0,114.71,114.71,0,0,1-53.34-52.68,48.88,48.88,0,0,1-54.63-1.31,309.92,309.92,0,0,0-126-63,147.16,147.16,0,0,1-44,35.47,88.41,88.41,0,0,0-37-35.47,86.36,86.36,0,0,0-32.38-8.85,303.05,303.05,0,0,1-57.59-.15c-15.64-1.54-63.21-7.44-117-36a328.28,328.28,0,0,1-53.08-35.23,75.56,75.56,0,0,0-72.89-.77c-1.77-.66-13.72-5.34-18-18a28.62,28.62,0,0,1-.44-16.48c-4.55-12.19-15.43-20-26.56-19.51-9.94.41-16.44,7.27-18,9a245.55,245.55,0,0,1-99-90Z" transform="translate(-426.08 -217.47)" fill="#47bcec" stroke="#3954a5" stroke-miterlimit="10"/></g>
<g id="Hat_Yai" data-name="Hat Yai"><path id="Hat_Yai-2" data-name="Hat Yai" d="M1327.35,6597.48a208.1,208.1,0,0,1-3.54-54,116.48,116.48,0,0,1,27-54,115.06,115.06,0,0,1,36-27v-77.82a299.14,299.14,0,0,0-81-39.16,216.47,216.47,0,0,1-9-81,213.65,213.65,0,0,1,9-46.42,57.49,57.49,0,0,1,40.49-36.76c-8.33-4-132.92-66.73-148.47-204.75-12.23-108.55,51.84-185.07,63-197.95a1025.28,1025.28,0,0,0,233.94-117,73.7,73.7,0,0,0,27-27,72.8,72.8,0,0,0,9-27h48.15a33.8,33.8,0,0,0,23.84-27l63,9a32.41,32.41,0,0,0,18-9c10.6-10.68,9.22-25,9-27h73.41a100.94,100.94,0,0,0,7.57-54c6.37,3.54,23.23,11.75,45,9a71.67,71.67,0,0,0,26.7-9,128.46,128.46,0,0,1,63.27-72,374.45,374.45,0,0,1,54,27c9.82,5.95,18.81,12,27,18v30.92a114.62,114.62,0,0,0,45,32.07l18-1.06v32.17a23.56,23.56,0,0,0,9,13.88c7.53,5.3,18.14,5.29,27,0a404.33,404.33,0,0,1,162-72c6.2-3.3,13.36-3.44,18,0,6.76,5,8.24,17.7,0,27v39.15a105.18,105.18,0,0,0,99,59.82,51.48,51.48,0,0,0,18,9,52.06,52.06,0,0,0,27,0,25.52,25.52,0,0,1,9,9c7,12.08.71,25.55,0,27q-4.5,18-9,36c-8.25,9.3-6.77,22,0,27,4.63,3.43,11.8,3.3,18,0a559.54,559.54,0,0,0,63-18c16.28-5.7,31.29-11.81,45-18a261,261,0,0,0,81-81,159.65,159.65,0,0,0,90-27,142.47,142.47,0,0,0,9-27,146,146,0,0,0,0-63h-36c-21.83-2.43-36.73-19.43-36-36s16.57-26.15,18-27l21.73-18a26.6,26.6,0,0,0-3.74-36,52.29,52.29,0,0,1-18-27,51.7,51.7,0,0,1,0-27,75.65,75.65,0,0,1,45-9,73.62,73.62,0,0,1,27.28,9c13.21-17.67,45-54.72,98.69-72a189.92,189.92,0,0,1,54-9,51.48,51.48,0,0,0,9-18,52.06,52.06,0,0,0,0-27,427.86,427.86,0,0,0-81-90v-45a122.35,122.35,0,0,1-63-45,94.56,94.56,0,0,0,0-81,88.74,88.74,0,0,1-18-27c-13.8-32.47-3.33-63.25,0-72,4,1,30.27,7.49,54-9,19.73-13.73,30.1-38.08,27-63a122.39,122.39,0,0,0,45,63,51.45,51.45,0,0,0,18,9,52.13,52.13,0,0,0,27,0c-.76,3.14-5.83,25.78,9,45a52.13,52.13,0,0,0,27,18,159.79,159.79,0,0,0,90-27,531,531,0,0,1,198,0c14-6.19,29-12.26,45-18q13.83-4.94,27-9a71.2,71.2,0,0,0,27-36,53.09,53.09,0,0,1,27,18,51.45,51.45,0,0,1,9,18,292.87,292.87,0,0,1-36,63,167.93,167.93,0,0,0,9,81,59,59,0,0,1,27,44.32,186.6,186.6,0,0,0,9,72.65,509.93,509.93,0,0,1,9,144c17.85,6.13,57.73,22.58,90,63a195,195,0,0,1,36,72,329.46,329.46,0,0,1,108,9,105.81,105.81,0,0,1,9,27c9,47.83-18.45,87.54-27,99a131.47,131.47,0,0,1-54,18v27a74.82,74.82,0,0,1-36,18,73.35,73.35,0,0,1-27,0,201.13,201.13,0,0,1-126,18,100.72,100.72,0,0,1-14.07,72,452.37,452.37,0,0,1-120.9,63h-90a203.7,203.7,0,0,1-72,72,114.46,114.46,0,0,1-27,9,116.05,116.05,0,0,1-45,0,41.48,41.48,0,0,1-9,36,155.55,155.55,0,0,1,81,72c-26.5,17.72-34.58,42.5-27,54,6.28,9.5,22.82,9.18,27,9a253.34,253.34,0,0,1,99-9,147.34,147.34,0,0,1-18,108,314.69,314.69,0,0,0,9,180,185.49,185.49,0,0,0,162,36c7.84,9.57,31.66,36.07,72,45a126.45,126.45,0,0,0,54,0,44.76,44.76,0,0,1,31.5,28.05,272.55,272.55,0,0,1,67.55,99.17c.72,3.19,5.32,25-9.07,43.74a51.83,51.83,0,0,1-27,18v126a69.35,69.35,0,0,0-9,45c3.89,26.41,22,41.16,26,44.23a110,110,0,0,0-17.62,88.32,59.16,59.16,0,0,0-34,10.29,69,69,0,0,0,25.62,82.1,117.33,117.33,0,0,1-90,54,126.77,126.77,0,0,0-72-63h-72A180.87,180.87,0,0,0,3206,6851a146.83,146.83,0,0,0-100.64,16.45,63.62,63.62,0,0,1-54-54,92.75,92.75,0,0,0-54,63h-36a102.72,102.72,0,0,1-36-18c-24.4-19.05-33.1-44-36-54a43.37,43.37,0,0,0,0-18c-3.35-15.64-14.55-24.48-18-27a51.42,51.42,0,0,1-9,18,53,53,0,0,1-27,18,283.42,283.42,0,0,0-72-108,31.32,31.32,0,0,0,9,0,33.42,33.42,0,0,0,18-9c.32-1.31,5.08-22.27-9-36a34.42,34.42,0,0,0-18-9l-27-9a71.24,71.24,0,0,0,36-27h27a207.93,207.93,0,0,0-9-81,51.25,51.25,0,0,0,27-18,110.12,110.12,0,0,1-63.09-11,508.89,508.89,0,0,1,9.1-124,51.71,51.71,0,0,0-9-9,52.56,52.56,0,0,0-17-8.79,61.38,61.38,0,0,1,26-36.2c.93-9.3,6.83-78.13-36-108a70.7,70.7,0,0,0-18-9,276.17,276.17,0,0,1-9-108,51.14,51.14,0,0,0-26.3,17.12,86,86,0,0,0-45.69,9.87,53,53,0,0,1-18,27,51.27,51.27,0,0,1-18,9c-4.39,13.74-14.6,24.53-27,27-18.26,3.63-40.11-11.05-45-36,4.12-12.8,12.41-44.84,0-81a122.35,122.35,0,0,0-19.62-35.89,99.23,99.23,0,0,1-82.26,0,42,42,0,0,1-44.88,36.18l-111.69-.29a49.14,49.14,0,0,0-20.48,9,50.11,50.11,0,0,0-17.71,26,434.46,434.46,0,0,1-135.26,10,289.36,289.36,0,0,1-106.11,98,717.32,717.32,0,0,1-116.73,178.63,639.79,639.79,0,0,1-261.92,74.24,467.3,467.3,0,0,0-79.5,107,191.34,191.34,0,0,1-119.58,1.09,58,58,0,0,1-9,18,58.79,58.79,0,0,1-21.74,17.82Z" transform="translate(-426.08 -217.47)" fill="#47bcec" stroke="#3954a5" stroke-miterlimit="10"/></g>
<g id="Na_Mom" data-name="Na Mom"><path id="Na_Mom-2" data-name="Na Mom" d="M3593.25,5539.63a44.4,44.4,0,0,0,16,23.09,21.8,21.8,0,0,1,19.78-11.55,40.55,40.55,0,0,1,16.21,47.54,61.19,61.19,0,0,0,18,9c17.16,5.26,32.06,1.41,38.4-.66a40.06,40.06,0,0,0-2.41,18.65c3.14,26.54,33.85,38.6,35.28,39.14a50.85,50.85,0,0,1,27.71,32.85,117,117,0,0,0,0,90,102,102,0,0,1-63,27v40.11a241.36,241.36,0,0,0,54,40.87c6.14,3.41,12.16,6.39,18,9-71,40.38-105.34,105.37-90,153,3.07,9.53,11.23,27.92,36,45-4.27,1.95-10.58,5-18,9-12.15,6.62-33.4,19.34-81,63-19.31,17.71-29.1,26.75-36,36s-20,27.23-27,54a146,146,0,0,0,0,72,98.09,98.09,0,0,0-84,52.12,59.12,59.12,0,0,0-33-25.13c-11.66,2.48-45.08,7.95-81-9a125.9,125.9,0,0,1-45-36,185.49,185.49,0,0,1-162-36,315.76,315.76,0,0,1-9-180,147.34,147.34,0,0,0,18-108,302.22,302.22,0,0,0-99,9c-4.17.18-20.71.5-27-9-7.59-11.49.49-36.27,27-54a155.55,155.55,0,0,0-81-72,41.48,41.48,0,0,0,9-36,112.84,112.84,0,0,0,45,0c30.26-6.28,49.56-23.81,63-36a184,184,0,0,0,36-45h90a355.7,355.7,0,0,0,125-70.15,100.64,100.64,0,0,0,9.93-64.81,201.13,201.13,0,0,0,126-18,73.53,73.53,0,0,0,27,0,74.46,74.46,0,0,0,35.17-17.27q.41-13.86.82-27.72a131.48,131.48,0,0,0,36-9C3586.22,5543.12,3589.87,5541.4,3593.25,5539.63Z" transform="translate(-426.08 -217.47)" fill="#47bcec" stroke="#3954a5" stroke-miterlimit="10"/></g>
<g id="Mueang"><path id="Mueang-2" data-name="Mueang" d="M3456.31,4348c5.74,12.12,23.87,46.11,63,63a116,116,0,0,0,36,9,784.12,784.12,0,0,0,117,197.95c3.86,2.62,17.61,11.25,36,9a51.72,51.72,0,0,0,23.26-9,1521.94,1521.94,0,0,0,291.67,485.89,105.71,105.71,0,0,0-54,18,104,104,0,0,0-27,27,290.27,290.27,0,0,1,54,108,286.16,286.16,0,0,1,9,72c7,3.62,19.8,11.71,27,27a52,52,0,0,1,3.35,9.3,40,40,0,0,1-12.34,17.69,40.52,40.52,0,0,1-24.35,9,475.54,475.54,0,0,0-128.62-9,55.61,55.61,0,0,0-27,27c-9.86,21.73-1.41,41.79,0,45a143.7,143.7,0,0,0-27,63,141.87,141.87,0,0,0,0,45c-2-.05-5.17-.09-9,0-6.5.16-24,.93-54,9-14.48,3.9-21.72,5.85-27,9-13.09,7.82-20.57,18.94-24.59,26.33-6.34,2.07-21.24,5.92-38.4.66a61.19,61.19,0,0,1-18-9,40.53,40.53,0,0,0-15.65-47.16,20.66,20.66,0,0,0-20.34,11.17,44.4,44.4,0,0,1-16-23.09c7.35-7.2,28.87-30.12,34-66.89a116.27,116.27,0,0,0-8.37-61.66,246.13,246.13,0,0,0-107.33-10.42c-6-19.95-22.21-63.42-64.26-98.88a202.73,202.73,0,0,0-63-36,584.07,584.07,0,0,0-8.49-141.45,158,158,0,0,1-9.51-75.17,58.92,58.92,0,0,0-25.86-43.57,191.66,191.66,0,0,1-10.3-80.39c9.2-14.08,18.37-29.51,27.16-46.33q4.77-9.12,9-18c-2.68-9.26-7.72-20.23-18-27-9-5.94-17.5-5.64-18-9-.46-3.14,6.22-8.45,36-18h27a70.52,70.52,0,0,1,36-63h54a173.72,173.72,0,0,0,81-99c.9-.35,7.13-2.83,9-9,1.95-6.42-1.59-14.23-9-18a41.48,41.48,0,0,1-36-9,171.16,171.16,0,0,0,18-45,61.58,61.58,0,0,1-18-18c-12.28-19-9.93-39-9-45a174.94,174.94,0,0,0-9-27,178.83,178.83,0,0,0-36-54,82.94,82.94,0,0,1-18-72Z" transform="translate(-426.08 -217.47)" fill="#47bcec" stroke="#3954a5" stroke-miterlimit="10"/></g>
<g id="Bang_Klam" data-name="Bang Klam"><path id="Bang_Klam-2" data-name="Bang Klam" d="M2016.65,5274.79a109.68,109.68,0,0,1-57.91,90.28,97.44,97.44,0,0,1-41.07,17.69,51.3,51.3,0,0,0-9,45c11.54,5.3,23.58,11.26,36,18,16.43,8.91,31.42,18,45,27v30.92a114.62,114.62,0,0,0,45,32.07l18-1.06V5564c.74,4.8,2.83,12.33,9,16.76,10.58,7.58,30.17,3.89,44.72-12.42a413.54,413.54,0,0,1,108.24-50.57c12.46-3.73,24.5-6.68,36-9,6.2-3.3,13.36-3.44,18,0,6.76,5,8.24,17.7,0,27v39.15a105.18,105.18,0,0,0,99,59.82,51.48,51.48,0,0,0,18,9,52.06,52.06,0,0,0,27,0,25.52,25.52,0,0,1,9,9c7,12.08.71,25.55,0,27q-4.5,18-9,36c-8.25,9.3-6.77,22,0,27,4.63,3.43,11.8,3.3,18,0,11.47-2.42,23.51-5.38,36-9a501.13,501.13,0,0,0,69.74-26,241.49,241.49,0,0,0,82.73-81.21,146.42,146.42,0,0,0,18.49-.78c30.58-3.22,54.48-15.44,70.19-25.8a127.35,127.35,0,0,0,10.79-28.18,131.13,131.13,0,0,0,.21-62l-35.34-1c-22.51-3.76-37.34-20.21-36.85-36,.36-11.53,8.81-19.7,11.76-22.31l26.92-21.81a22.5,22.5,0,0,0,6.31-9.87c2.66-8.77-.68-18.85-8.3-26.35a52.83,52.83,0,0,1-18.69-27.63,51.9,51.9,0,0,1-.46-25.16,67.38,67.38,0,0,1,27.45-10.84c22.34-3.42,39.67,5.72,45.28,9a191.3,191.3,0,0,1,44.7-45c43-30.73,87.59-35.26,108-36a51.23,51.23,0,0,0,9-18A51.84,51.84,0,0,0,2899,5214a384.89,384.89,0,0,0-80.88-91.6l-.63-43.7a141.09,141.09,0,0,1-62.45-46.08,91.39,91.39,0,0,0,8.46-27.72,94.37,94.37,0,0,0-8.14-52.1,92.63,92.63,0,0,1-18.85-28.88c-13.16-32.16-3.61-62.06-.31-71.15a53.61,53.61,0,0,0,.31-9.83,56.7,56.7,0,0,0-9-27c1.76-12.45,2.75-34.3-9-54-5-8.41-7.89-8.94-9-9-10-.58-19.84,27.79-27,54l-36,27a128.44,128.44,0,0,0-9,27,131.08,131.08,0,0,0,0,54c-24.35-23.23-33.67-28.89-36-27-2.68,2.19,4.39,14.1,0,18-2.05,1.83-5.76,1.13-9,0a61,61,0,0,0-9,18,63.16,63.16,0,0,0,0,36,137.53,137.53,0,0,0-90,72v63a253.15,253.15,0,0,1-54,45c-20.3,12.52-43.53,22.72-162.18,52.07-40.76,10.08-35.91,8.36-44.77,10.91a409.54,409.54,0,0,0-139.85,72,84.72,84.72,0,0,0-76.1,0Z" transform="translate(-426.08 -217.47)" fill="#47bcec" stroke="#3954a5" stroke-miterlimit="10"/></g>
<g id="Khuan_Niang" data-name="Khuan Niang"><path id="Khuan_Niang-2" data-name="Khuan Niang" d="M2286.59,3871.12a101.84,101.84,0,0,1-27,63,59.14,59.14,0,0,0-27-9,60,60,0,0,0-36,9,33.54,33.54,0,0,0,9,63,152.24,152.24,0,0,1-81,36v52.74a68.54,68.54,0,0,1-63,37.24c4.29,15,7.16,27.41,9,36,3.82,17.91,4.44,25.32,9,36a90.6,90.6,0,0,0,18,27c-10.46,20.74-34.3,60.58-81,90a220.32,220.32,0,0,1-63,27,238.5,238.5,0,0,0,117,126c3.44,10.12,6.15,24,0,36-7.69,15-23.26,15.63-27,27-2.64,8.05.64,21.46,27,45a117.26,117.26,0,0,0-54,90c-14.21,7.19-89.26,46.69-99,117-1.57,11.4-4.74,34.31,9,54,24.19,34.64,78.49,27.36,81,27,1.54,6.71,10.35,41.92,45,63,27.26,16.57,54.3,14.52,63,13.5a35.83,35.83,0,0,1-18,67.48c-1.64.25-26.15,4.4-36,27-7.49,17.19-1.24,33,0,36a356.81,356.81,0,0,1-27,108,111.86,111.86,0,0,0,9,45c13.92,32.33,39.43,48.51,49.11,54A516,516,0,0,1,2298,5186.74a539.58,539.58,0,0,0,96.56-28.92c31-12.61,47.49-22.82,54-27a279.24,279.24,0,0,0,45-36v-63a137.53,137.53,0,0,1,90-72,149.31,149.31,0,0,1,0-27c1.06-11.71,2.38-24.77,9-27,3.75-1.26,6.66,1.81,9,0,4.29-3.3-2.72-15.77,0-18,2.32-1.9,11.64,3.76,36,27a131.08,131.08,0,0,1,0-54,128.44,128.44,0,0,1,9-27,71.24,71.24,0,0,1,36-27,105.07,105.07,0,0,1-36,0c-27.56-4.84-45.95-19.61-54-27l-81-108-18-81,9-54-54-18-63,9-27-108,90-99,171-81-54-63-144-27-103.47-86.82v-87.3a184,184,0,0,1-13.5-23.83A192.26,192.26,0,0,1,2286.59,3871.12Z" transform="translate(-426.08 -217.47)" fill="#47bcec" stroke="#3954a5" stroke-miterlimit="10"/></g>
<g id="Rattaphum"><path id="Rattaphum-2" data-name="Rattaphum" d="M1296.32,6274.19a71,71,0,0,1-35.49-9.64c-32.47-19.26-35.71-58.61-36-63a410,410,0,0,1-278.94-90c-4,4.81-29.22,34.12-72,36-47.88,2.1-77.34-32-80.7-36v-62.32A218.69,218.69,0,0,1,649,5904.64c-4-11.78-15.39-19.17-27-18a26,26,0,0,0-21.73,18c-22.8-2.82-39.51-18.45-41.26-36-1.31-13.25,6.3-23.64,9-27a83.15,83.15,0,0,0,0-36c-5.52-24.67-20.91-39.65-27-45a146.82,146.82,0,0,1,36-45,85.89,85.89,0,0,0,0-27c-10.74-66.27-98.77-96-108-99a186.42,186.42,0,0,1,9-90c10.75.29,37.31-.5,63-18a103.43,103.43,0,0,0,27-27,60.46,60.46,0,0,0-9-18c-17.54-23.9-47.49-26.56-54-27,.52-.95,9.92-18.67,0-36a36.94,36.94,0,0,0-36-18,100.71,100.71,0,0,0-9-63,130.73,130.73,0,0,1,0-54,128.67,128.67,0,0,1,9-27,158.36,158.36,0,0,1-36-153c29.49,4.05,55.82-8.72,63-27,9.21-23.5-10.63-62.89-54-72,.22-16,3.32-37.46,18-54,12.65-14.24,26-16,45-27,15.42-9,35.47-24.66,54-54,1,2.6,8.41,21.44,27,27,19.12,5.72,42.29-4.93,53.31-27a308.44,308.44,0,0,0,90.65-90h87.4a220.32,220.32,0,0,0,110.56,90,58.63,58.63,0,0,0,45-27,51.5,51.5,0,0,1,18,9,53.13,53.13,0,0,1,18,27,296,296,0,0,0,108-153,909.08,909.08,0,0,0,265.63-108H1502a54.58,54.58,0,0,1,10.82-18c13.18-14.53,30.4-17.33,36-18a51,51,0,0,0,9,9,51.89,51.89,0,0,0,18,9,504.29,504.29,0,0,0,135-81,359.78,359.78,0,0,1,160,0,384.46,384.46,0,0,0,83-126,274.19,274.19,0,0,0,114.72,115.84,49.8,49.8,0,0,1,2.26,28.12c-4.74,21.74-23,32.07-26,33.69a35.12,35.12,0,0,0-1,11.3c1.66,21.68,23.74,34.21,27,36a117.26,117.26,0,0,0-54,90,168.58,168.58,0,0,0-54,36c-9.39,9.36-26.24,26.49-36,54-6.65,18.75-19,53.5,0,81,15.8,22.9,48,33,81,27,1.84,6.41,16.67,55.19,63,72a94.7,94.7,0,0,0,45,4.5c14.6,8.15,21.93,24.93,18,40.49-3.52,13.92-15.47,24.53-30.17,26.69-18.54.84-34.81,11.41-41.81,27.29-7.45,16.9-1.32,32.78,0,36A356.63,356.63,0,0,1,2036,5172.48a135.58,135.58,0,0,0,56.72,102.31,82.86,82.86,0,0,0-31.11-9,84.15,84.15,0,0,0-45,9,132.33,132.33,0,0,1-97.44,107.68,46.92,46.92,0,0,0-10.54,18.29,47.44,47.44,0,0,0,0,27,125.58,125.58,0,0,0-27,18,128.39,128.39,0,0,0-35.07,50.72,68.07,68.07,0,0,1-72.9,3.26,100.94,100.94,0,0,1-7.57,54h-71.21c0,2.56-.13,16.58-11.2,27a35.81,35.81,0,0,1-18,9l-63-9a33.8,33.8,0,0,1-23.84,27H1533a100.61,100.61,0,0,1-11.2,27c-15.2,25.25-37.85,36.68-54,45-84.17,43.35-62,38.38-117,63-22.49,10.06-53,22.86-90,36-11.15,12.88-75.22,89.4-63,197.95,15.55,138,140.14,200.74,148.47,204.75a65.64,65.64,0,0,0-22.5,11.2C1290.3,6218.49,1295.68,6268.85,1296.32,6274.19Z" transform="translate(-426.08 -217.47)" fill="#47bcec" stroke="#3954a5" stroke-miterlimit="10"/></g>
<g id="Singhanakhon"><path id="Singhanakhon-2" data-name="Singhanakhon" d="M2574.52,3565.19c4,25.06,7.23,52.11,9,81a830.91,830.91,0,0,1-9,182.35c26.63,13.94,43.93,40.5,45,69.59,1.31,36.3-23.27,59.58-27,63,32.93,36.52,35.81,89.85,9,126-21.91,29.52-60.73,43.59-99,36a633.13,633.13,0,0,1,171,99H2746c10.25-8.7,42-33.33,89.5-36,58-3.25,97.74,28.58,106.53,36A2475.64,2475.64,0,0,0,3159.38,4402c39.73,29.24,78.83,56.17,117,81l18,63c3.32-2.23,25.94-16.84,54-9,33.8,9.45,44.34,42.8,45,45,6.71,1.26,30.37,4.86,54-9a76.92,76.92,0,0,0,27-27l-54-81,9-72a149.71,149.71,0,0,1-45-27c-49-42.87-53.34-104.95-54-120.9a1762.75,1762.75,0,0,1-431.9-742.89c-25,18.29-71.42,46.57-135,54a272.73,272.73,0,0,1-63,0l-36-27a144.11,144.11,0,0,0-90,36Z" transform="translate(-426.08 -217.47)" fill="#47bcec" stroke="#3954a5" stroke-miterlimit="10"/></g>
<g id="Sathing_Phra" data-name="Sathing Phra"><path id="Sathing_Phra-2" data-name="Sathing Phra" d="M2214.6,2323.48a257.92,257.92,0,0,1,81,18c22.49,9,54.25,22.2,81,54a167.41,167.41,0,0,1,27,45,709.49,709.49,0,0,1,27,81,727.52,727.52,0,0,1,18,90c6.4,44.59,17,109.76,36,206.95l9,287.93a314.46,314.46,0,0,0-9,180q9,11.72,18,23.45a63,63,0,0,1-27,73.51,150,150,0,0,0-9,65,147.89,147.89,0,0,0,9,39.53,311.09,311.09,0,0,1,99,77.44c11.54-11.53,36.52-32.81,72-36a102,102,0,0,1,18,0l36,27c28.26,3.14,79,4.64,135-18a271.55,271.55,0,0,0,63-36c-68.64-153.86-135.84-321.93-198-503.89a5982.29,5982.29,0,0,1-233.95-917.78c-12.13,7.95-26.85,7.69-36,0-7.37-6.2-8.7-15.19-9-18a380.22,380.22,0,0,0-117,36c.9.67,9,7,9,18,0,1.12-.18,11.38-9,18a209.74,209.74,0,0,0-90,79.35Z" transform="translate(-426.08 -217.47)" fill="#47bcec" stroke="#3954a5" stroke-miterlimit="10"/><polygon points="1880.49 2537.91 1880.49 2568.45 1919.45 2568.45 1919.45 2553.18 1895.33 2553.18 1899.97 2537.91 1880.49 2537.91" fill="#47bcec" stroke="#3954a5" stroke-miterlimit="10"/><path d="M2364.55,2890.35l-9,9q9,13.5,18,27l18,72,9-81h18v-27a45,45,0,0,1-54,0Z" transform="translate(-426.08 -217.47)" fill="#47bcec" stroke="#3954a5" stroke-miterlimit="10"/></g>
<g id="Koh_Yor" data-name="Koh Yor"><path id="Koh_Yor-2" data-name="Koh Yor" d="M3258.36,4626.94a41.48,41.48,0,0,0-9,36,20.55,20.55,0,0,1-9,9c-8.53,4.23-16.84.53-18,0-.34.11-7.43,2.43-9,9-1.41,5.88,2.24,12.63,9,15.22a16,16,0,0,0,18,0,95.75,95.75,0,0,1-18,83.75,25.58,25.58,0,0,1-9,9c-12.08,7-25.55.71-27,0,.54-1.15,4.23-9.47,0-18a20.38,20.38,0,0,0-9-9,59,59,0,0,0-18,63h88.16a78.53,78.53,0,0,1,55.81-45l27-9a128.43,128.43,0,0,0-9-18c-13.78-22.87-32-36.92-45-45a111.71,111.71,0,0,0-18-81Z" transform="translate(-426.08 -217.47)" fill="#47bcec" stroke="#3954a5" stroke-miterlimit="10"/></g>
<g id="Krasae_Sin" data-name="Krasae Sin"><path id="Krasae_Sin-2" data-name="Krasae Sin" d="M1926.67,1531.67h63c9.82-33.06,42.66-51.93,72-45,23.65,5.6,42.09,27.32,45,54a532,532,0,0,0,27,117,86.53,86.53,0,0,0,54,72c-28.57,15.62-40.11,34.63-45,45-23.88,50.77,3,126.25,72,180.82a76.67,76.67,0,0,0,18,98.12,107.76,107.76,0,0,0,72,45c1.1.87,9.08,7.48,9,18-.08,9.66-6.92,18.62-17.09,22a209.6,209.6,0,0,0-81.89,75.39v109.6a680.27,680.27,0,0,0-224.94,0,318,318,0,0,0-126,126,399.73,399.73,0,0,1-81,189,207.69,207.69,0,0,1,9,81,185.57,185.57,0,0,1-54-72,45,45,0,0,1-54,0,114.64,114.64,0,0,0-27-54v-105a26.35,26.35,0,0,1-9-12,26.68,26.68,0,0,1,0-18,270.42,270.42,0,0,1,99-108,163.48,163.48,0,0,1,27-126,211.43,211.43,0,0,1,81,63h36a201,201,0,0,0,63-144,1749.06,1749.06,0,0,0,9-377.91A1744.69,1744.69,0,0,0,1926.67,1531.67Z" transform="translate(-426.08 -217.47)" fill="#47bcec" stroke="#3954a5" stroke-miterlimit="10"/></g>
<g id="Ranot"><path id="Ranot-2" data-name="Ranot" d="M1269.83,1135.76q-46.53-142-90-296.93-34.69-124.44-63-242.94c41.51-10.2,86.59-19.5,135-27a1577.77,1577.77,0,0,1,198-18,367.85,367.85,0,0,1,196.38-118.6,82.59,82.59,0,0,0,0-32.16,62.19,62.19,0,0,0-32.79,0c-.94-12.26-1.52-25-1.63-38.19q0-4.54,0-9c13-4.58,30.63-8.17,45,0,9.36,5.32,11.19,12.13,18,18,20,17.26,57.71,4.42,72,0,31.2-9.65,78.67-18.72,153-18a230.5,230.5,0,0,1-9-90,179.49,179.49,0,0,0,54-45,240.21,240.21,0,0,1,99,27q72.94,408.63,171,845.8c78.37,346.8,163.26,677,251.94,989.77-12.13,7.95-26.85,7.69-36,0-7.37-6.2-8.7-15.19-9-18a380.22,380.22,0,0,0-115.08,35.06,102.87,102.87,0,0,1-46.88-17.07,101.82,101.82,0,0,1-25.77-25.3,78.71,78.71,0,0,1-19.22-100.67c-73-63.34-98.81-142.75-72-189,5.42-9.33,17.34-24.82,45-36a86.52,86.52,0,0,1-53.74-69.75,571.83,571.83,0,0,1-27.51-121.31c-3.75-27.85-26.31-49.45-53.72-51.88-28.67-2.54-55.63,16.49-63,45h-63c-1.18-69.48-12.82-158.49-54-251.94-8.49-19.28-17.59-37.27-27-54a448.89,448.89,0,0,0-108-207h-90a433,433,0,0,0-108,108h-126c-1.91-2.7-27.48-37.45-72-36C1294.1,1092.34,1270.77,1134,1269.83,1135.76Z" transform="translate(-426.08 -217.47)" fill="#47bcec" stroke="#3954a5" stroke-miterlimit="10"/></g></svg>